<svg width="633" height="165" viewBox="0 0 633 165" fill="none" xmlns="http://www.w3.org/2000/svg">
<path d="M0 164.811V34.2547H38.6456V54.7259L61.4822 34.2547H107.422L129.503 56.4705L154.349 34.2547H200.289L228.144 62.2121V164.811H189.487V68.9586L179.961 59.2198H160.133L135.276 81.6785V164.811H96.6307V68.9586L87.0942 59.2198H67.2663L38.6456 85.4216V164.811H0Z" fill="white"/>
<path d="M286.27 164.854L258.475 137.086V62.0554L286.27 34.298H359.662L387.712 62.0554V137.086L359.662 164.854H286.27ZM306.82 140.062H339.123L349.094 130.105L348.85 68.8371L339.079 58.825L306.775 59.0794L296.75 68.8371L297.004 130.105L306.82 140.062Z" fill="white"/>
<path d="M419.536 164.854V136.333H489.726L498.314 127.892V121.133L488.966 111.629H438.968L412.769 86.8147V58.8028L438.778 34.298H523.33V62.5533H458.668L450.851 70.8064V75.5525L459.941 84.8123H510.431L536.731 109.328V140.062L510.721 164.821L419.536 164.854Z" fill="white"/>
<path d="M592.607 164.854L566.36 140.41V60.6135H556.513V34.6802H567.889L579.054 0.010498H605.301V34.6802H627.25V60.6135H605.234V128.938L613.808 137.674H633V164.854H592.607Z" fill="white"/>
</svg>
